<?xml version="1.0" encoding="UTF-8"?>
<svg xmlns="http://www.w3.org/2000/svg" viewBox="0 0 2612.89 2000">
  <defs>
    <style>
      .cls-1 {
        fill: #fff;
      }

      .cls-2 {
        fill: #ff424d;
      }

      .cls-3 {
        fill: #36a9e1;
      }

      .cls-4 {
        fill: #ef293d;
      }

      .cls-5 {
        opacity: .5;
      }

      .cls-6 {
        fill: #33192c;
      }

      .cls-7 {
        fill: #fc4963;
      }

      .cls-8 {
        fill: #258d8c;
      }

      .cls-9 {
        isolation: isolate;
      }

      .cls-10 {
        fill: #dcf4ff;
      }

      .cls-11 {
        fill: #fbfdfc;
      }

      .cls-12 {
        fill: #f07162;
      }

      .cls-13 {
        fill: #fe9f73;
      }

      .cls-14 {
        fill: #b1e8fc;
      }

      .cls-15 {
        fill: #5fb28a;
      }

      .cls-16, .cls-17 {
        opacity: .3;
      }

      .cls-18 {
        fill: #ffb357;
      }

      .cls-19 {
        fill: #f99247;
      }

      .cls-20 {
        fill: #d4eef4;
      }

      .cls-21 {
        fill: #f3fffe;
      }

      .cls-17, .cls-22 {
        mix-blend-mode: multiply;
      }

      .cls-23 {
        fill: #fec786;
      }

      .cls-24 {
        fill: #aac9f8;
      }

      .cls-25 {
        fill: #49263e;
      }

      .cls-26 {
        fill: #f75553;
      }

      .cls-27 {
        fill: #aedff4;
      }

      .cls-28 {
        fill: none;
      }

      .cls-29 {
        fill: #fecc86;
      }

      .cls-30 {
        fill: #7fc6a6;
      }

      .cls-31 {
        fill: #e2f2f1;
      }

      .cls-32 {
        fill: #4c222e;
      }

      .cls-33 {
        fill: #fd7583;
      }

      .cls-34 {
        fill: #4cb7d8;
      }

      .cls-35 {
        fill: #f7d6b2;
      }

      .cls-36 {
        fill: #21111d;
      }
    </style>
  </defs>
  <g class="cls-9">
    <g id="Layer_1" data-name="Layer 1">
      <rect class="cls-28" width="2612.89" height="2000"/>
      <g>
        <path class="cls-3" d="m859.98,1853l-472.89-1.77s-355.23-217.38-217.99-785.75c41.41-171.48,280-431.89,572.88-451.26,357.29-23.63,326.74-454.58,992.74-370.84,183.09,23.02,424.17,211.89,571.28,512.01,109.56,223.51,330.41,549.13-23.21,1097.65l-1422.81-.04Z"/>
        <path class="cls-25" d="m909.88,563.53l924.73-1.67c16.57-.03,30.02,13.46,30.05,30.13l2.21,1229.15c.03,16.67-13.38,30.21-29.94,30.24l-924.73,1.67c-16.57.03-30.02-13.46-30.05-30.13l-2.21-1229.15c-.03-16.67,13.38-30.21,29.94-30.24Z"/>
        <polygon class="cls-1" points="944.43 1773.89 944.43 621.55 1802.61 621.55 1802.61 1565.78 1601.41 1773.89 944.43 1773.89"/>
        <rect class="cls-27" x="1425.31" y="658.31" width="315.5" height="376.95"/>
        <path class="cls-2" d="m1373.52,483.76c-75.94,0-137.51,61.56-137.51,137.51,0,.1,0,.19,0,.29h275.01c0-.1,0-.19,0-.29,0-75.94-61.56-137.51-137.51-137.51Zm0,103.27c-13.44,0-24.33-10.89-24.33-24.33s10.9-24.33,24.33-24.33,24.33,10.89,24.33,24.33-10.89,24.33-24.33,24.33Z"/>
        <g>
          <rect class="cls-14" x="1012" y="682.59" width="323.22" height="14.54"/>
          <rect class="cls-14" x="1012" y="746.79" width="323.22" height="14.54"/>
        </g>
        <g>
          <rect class="cls-14" x="1012" y="819.55" width="323.22" height="14.54"/>
          <rect class="cls-14" x="1012" y="883.76" width="323.22" height="14.54"/>
        </g>
        <g>
          <rect class="cls-14" x="1012" y="956.51" width="323.22" height="14.54"/>
          <rect class="cls-14" x="1012" y="1020.72" width="323.22" height="14.54"/>
        </g>
        <polygon class="cls-10" points="1802.61 1565.78 1601.41 1773.89 1601.41 1565.78 1802.61 1565.78"/>
        <g>
          <path class="cls-14" d="m1178.34,1385.32h-166.35v-166.35h166.35v166.35Zm-154.34-12.01h142.33v-142.33h-142.33v142.33Z"/>
          <g>
            <rect class="cls-14" x="1220.25" y="1217.15" width="509.26" height="17.08"/>
            <rect class="cls-14" x="1220.25" y="1292.59" width="509.26" height="17.08"/>
          </g>
          <path class="cls-2" d="m1093,1361.81l-49.99-76.34c-1.15-1.75-.69-4.13,1.02-5.31,1.71-1.18,4.03-.71,5.17,1.04l42.04,64.2,53.41-140.16c.75-1.97,2.91-2.94,4.83-2.17,1.92.77,2.87,2.99,2.12,4.96l-58.6,153.78Z"/>
        </g>
        <g>
          <path class="cls-14" d="m1178.34,1613.64h-166.35v-166.35h166.35v166.35Zm-154.34-12.01h142.33v-142.33h-142.33v142.33Z"/>
          <g>
            <rect class="cls-14" x="1220.25" y="1446.49" width="509.26" height="17.08"/>
            <rect class="cls-14" x="1220.25" y="1521.93" width="509.26" height="17.08"/>
          </g>
          <path class="cls-2" d="m1097.69,1582.76l-60.74-91.16c-1.42-2.17-.86-5.12,1.26-6.58,2.12-1.46,4.99-.88,6.41,1.29l50.89,76.12,66.21-173.75c.93-2.44,3.61-3.64,5.99-2.69,2.38.95,3.55,3.7,2.62,6.14l-72.65,190.63Z"/>
        </g>
        <path class="cls-1" d="m374.53,936.43c14.42-.83,48.22-2.27,77.6.21,12.16,1.03,22.65-8.69,22.38-20.88-.11-4.99-1.9-10.8-6.54-17.38-17.84-25.34-48.85-1.14-48.55,11.72,0,0-6.27-19.37-25.31-15.98-19.04,3.39-12.31,31.56-12.31,31.56,0,0-6.14-1.3-10.4,1.61-4.19,2.86-1.93,9.43,3.13,9.14Z"/>
        <path class="cls-1" d="m202.29,1137.62c-.91-3.05-.59-6.53,1.54-9.44,3.84-5.25,10.82-9.71,23.34-10.48,0,0-13.53-60.12,38.91-66.43,53.89-6.48,56.68,56.88,56.68,56.88,0,0,30.55-33.62,47.2,7.34,0,0,32.88-16.59,48.67,3.32,4.73,5.96,3.93,13.95-.13,18.8h-216.2Z"/>
        <path class="cls-1" d="m1979.51,928.97c-1.09-3.66-.7-7.85,1.85-11.34,4.62-6.31,13.01-11.67,28.05-12.6,0,0-16.27-72.27,46.77-79.85,64.78-7.79,68.13,68.38,68.13,68.38,0,0,36.72-40.41,56.74,8.82,0,0,39.52-19.94,58.5,4,5.68,7.16,4.72,16.77-.16,22.6h-259.88Z"/>
        <rect class="cls-36" x="278.27" y="1850.07" width="2054.46" height="5.9"/>
        <g>
          <g>
            <g>
              <path class="cls-29" d="m2102.79,409.24c0-109.03-88.38-197.42-197.4-197.42s-197.4,88.39-197.4,197.42c0,54.08,21.75,103.07,56.97,138.73h0s59.74,63.89,79.91,133.53c0,0,34.49,11.72,60.52,12.37,26.03-.65,60.52-12.37,60.52-12.37,20.17-69.64,79.91-133.53,79.91-133.53h0c35.22-35.66,56.97-84.65,56.97-138.73Z"/>
              <path class="cls-34" d="m1905.34,797.5h0c-16.95,0-30.68-13.74-30.68-30.69h61.36c0,16.95-13.74,30.69-30.68,30.69Z"/>
              <path class="cls-34" d="m1839.54,665.76h131.61v65.97c0,24-19.49,43.49-43.49,43.49h-44.63c-24,0-43.49-19.49-43.49-43.49v-65.97h0Z"/>
              <g class="cls-17">
                <path class="cls-29" d="m2102.79,409.24c0-40.39-12.13-77.95-32.95-109.23-57.74,142.27-149.81,237.95-282.45,275.07,16.7,21.91,38.85,54.91,52.23,90.69h131.52c23.66-63.23,74.67-117.79,74.67-117.79h0c35.22-35.66,56.97-84.65,56.97-138.73Z"/>
              </g>
            </g>
            <path class="cls-19" d="m1937.64,666.53l-5.65-1.54c.18-.68,18.59-68.37,31.36-137.7,22.15-120.3,9.41-145.82-.15-150.32-9.78-4.6-17.47-3.78-22.86,2.45-.39.45-.77.93-1.13,1.43,13.8,8.14,17.14,20.64,17.93,25.7,2.19,13.97-4.06,27.91-13.92,31.08-2.39.77-6.99,1.16-10.96-4.85-6.31-9.55-8.28-33.41-1.22-49.33-6.79-2.78-15.05-4.25-24.51-4.25h-5.7c-9.46,0-17.73,1.48-24.51,4.25,7.07,15.91,5.1,39.78-1.22,49.33-3.97,6.01-8.57,5.62-10.96,4.85-9.87-3.17-16.11-17.11-13.92-31.08.79-5.06,4.14-17.56,17.93-25.7-.36-.5-.74-.98-1.13-1.43-5.39-6.23-13.08-7.06-22.86-2.45-9.56,4.5-22.3,30.02-.15,150.32,12.77,69.34,31.18,137.03,31.36,137.7l-5.65,1.54c-.18-.68-18.65-68.58-31.47-138.16-17.69-96.05-16.57-147.31,3.41-156.71,15.51-7.3,24.75-1.89,29.78,3.92.71.82,1.37,1.69,1.99,2.6,6.91-2.94,15.84-4.85,27.4-4.85h5.7c11.56,0,20.49,1.91,27.4,4.85.62-.92,1.28-1.79,1.99-2.6,5.03-5.82,14.28-11.22,29.78-3.92,19.98,9.41,21.1,60.67,3.41,156.71-12.81,69.58-31.28,137.48-31.47,138.16Zm-66.58-280.5c-8.32,4.86-13.6,12.17-15.05,21.42-1.91,12.19,3.59,22.56,9.93,24.6.59.19,2.16.7,4.28-2.51,5.41-8.17,6.83-29.76.84-43.51Zm65.24,0c-5.99,13.75-4.57,35.34.84,43.51,2.12,3.21,3.69,2.7,4.28,2.51,6.34-2.04,11.84-12.41,9.93-24.6-1.45-9.26-6.73-16.56-15.05-21.42Z"/>
            <path class="cls-36" d="m1838.58,667.14c-1.57-4.5-2.28-6.15-3.84-9.76l-.85-1.97c-24.65-57.56-69.56-105.96-70.01-106.44l-.14-.15c-36.9-37.45-57.22-87.01-57.22-139.58,0-109.66,89.21-198.88,198.86-198.88,67.32,0,129.56,33.67,166.49,90.08l-2.45,1.6c-36.38-55.57-97.71-88.75-164.04-88.75-108.04,0-195.93,87.9-195.93,195.95,0,51.88,20.08,100.78,56.55,137.7l1.91,1.93-.14.03c8.6,9.61,46.75,53.83,68.81,105.36l.85,1.97c1.58,3.68,2.31,5.35,3.91,9.95l-2.77.97Z"/>
            <path class="cls-36" d="m1767.53,318.1l-2.81-.82c.14-.49,14.74-49.08,63.84-67.35l1.02,2.74c-47.69,17.74-61.91,64.95-62.05,65.42Z"/>
            <path class="cls-36" d="m1776.58,335.66l-2.81-.82c.14-.49,14.74-49.08,63.84-67.35l1.02,2.74c-47.69,17.74-61.91,64.95-62.05,65.42Z"/>
            <path class="cls-36" d="m1912.52,776.68h-14.35c-33.14,0-60.1-26.96-60.1-60.1v-52.29h133.07v2.93h-130.15v49.36c0,31.53,25.65,57.17,57.17,57.17h14.35c15.09,0,29.33-5.83,40.09-16.41l2.05,2.09c-11.31,11.13-26.27,17.25-42.14,17.25Z"/>
            <path class="cls-36" d="m1906.2,798.98c-28.52,0-32.64-27.67-32.68-27.95l2.9-.4c.15,1.06,3.96,26.03,30.73,25.41l.07,2.93c-.34,0-.68.01-1.02.01Z"/>
            <path class="cls-36" d="m2040.75,519.75l-1.74-2.35c26.05-19.33,30.15-51.6,30.19-51.93l2.91.34c-.04.34-4.26,33.84-31.36,53.94Z"/>
            <path class="cls-36" d="m2034.99,505.69l-1.74-2.35c18.99-14.09,21.99-37.63,22.01-37.86l2.91.34c-.12,1.01-3.15,25.01-23.18,39.87Z"/>
            <path class="cls-36" d="m1833.5,692.07l-.03-2.93c1.12-.01,112.08-1.45,147.23-14.55l1.02,2.74c-35.62,13.28-143.64,14.68-148.22,14.74Z"/>
            <path class="cls-36" d="m1833.51,716.8l-.05-2.93c1.21-.02,121.64-2.41,144.15-14.47l1.38,2.58c-23.13,12.39-140.49,14.72-145.48,14.82Z"/>
            <path class="cls-36" d="m1839.55,742.19l-.03-2.93c1.09-.01,109.15-1.15,138.1-16.11l1.34,2.6c-29.56,15.28-134.94,16.39-139.41,16.43Z"/>
          </g>
          <path class="cls-19" d="m1657.67,378.16c-.12,0-.25,0-.38-.02l-69.86-5.95c-2.42-.21-4.21-2.33-4.01-4.75.2-2.42,2.33-4.2,4.75-4l69.86,5.95c2.42.21,4.21,2.33,4.01,4.75-.19,2.29-2.11,4.02-4.37,4.02Z"/>
          <path class="cls-19" d="m1693.8,266.86c-.85,0-1.72-.25-2.48-.77l-57.86-39.59c-2-1.37-2.51-4.1-1.14-6.11,1.37-2,4.1-2.52,6.11-1.14l57.86,39.59c2,1.37,2.51,4.1,1.14,6.11-.85,1.24-2.23,1.91-3.63,1.91Z"/>
          <path class="cls-19" d="m1798.37,187.03c-1.73,0-3.38-1.03-4.07-2.74l-26.39-64.96c-.91-2.25.17-4.81,2.42-5.72,2.24-.91,4.81.17,5.72,2.42l26.39,64.96c.91,2.25-.17,4.81-2.42,5.72-.54.22-1.1.32-1.65.32Z"/>
          <path class="cls-19" d="m2149.6,390.82c-2.29,0-4.23-1.78-4.38-4.1-.16-2.42,1.67-4.51,4.09-4.67l69.96-4.62c2.4-.16,4.51,1.67,4.67,4.09.16,2.42-1.67,4.51-4.09,4.67l-69.96,4.62c-.1,0-.2,0-.29,0Z"/>
          <path class="cls-19" d="m2115.58,278.86c-1.43,0-2.83-.7-3.68-1.98-1.33-2.03-.77-4.75,1.26-6.08l58.6-38.49c2.03-1.33,4.75-.77,6.08,1.26,1.33,2.03.77,4.75-1.26,6.08l-58.6,38.49c-.74.49-1.58.72-2.41.72Z"/>
          <path class="cls-19" d="m2026.07,186.77c-.58,0-1.16-.12-1.73-.36-2.23-.96-3.26-3.54-2.31-5.77l27.61-64.45c.96-2.23,3.54-3.26,5.77-2.31,2.23.96,3.26,3.54,2.31,5.77l-27.61,64.45c-.71,1.67-2.34,2.66-4.04,2.66Z"/>
          <path class="cls-19" d="m1913.46,152.65s-.05,0-.07,0c-2.43-.04-4.36-2.03-4.33-4.46l1.08-70.11c.04-2.4,2-4.33,4.39-4.33.02,0,.05,0,.07,0,2.43.04,4.36,2.03,4.33,4.46l-1.08,70.11c-.04,2.4-2,4.33-4.39,4.33Z"/>
          <g class="cls-5">
            <path class="cls-21" d="m2037.89,314.04c-6.91,10.72-30.72,7.69-53.17-6.78-22.45-14.47-35.06-34.9-28.14-45.62,6.91-10.72,30.72-7.69,53.17,6.78,22.45,14.47,35.06,34.9,28.14,45.62Z"/>
          </g>
        </g>
        <rect class="cls-14" x="1436.62" y="671.81" width="292.89" height="349.94"/>
        <g>
          <path class="cls-13" d="m1544.75,951.53c-34.03-5.77-31.4-44.75-31.4-44.75l3.14-119.25.06-2.2,140.68-26.19.4,54.89.07,10.6.06,5.99.03,6.68.34,46.55.07,8.59-2.1,34.35s7.01,56.46,10.88,94.96h-132.9l10.67-70.22Z"/>
          <path class="cls-12" d="m1624.82,920.45s-4,65.29-85.78,69.39l5.71-38.3s52.65,12.02,80.07-31.09Z"/>
          <path d="m1665.65,835.89l-35.3,6.39-6.52,6.41s4.58-58.78,11.5-70.18c6.92-11.4,30.32,57.38,30.32,57.38Z"/>
          <path class="cls-13" d="m1616.42,856.56c-.42,16.17,12.34,29.62,28.51,30.05,16.17.42,29.63-12.34,30.05-28.51.42-16.17-12.34-29.63-28.51-30.05-16.17-.42-29.63,12.34-30.05,28.51Z"/>
          <path d="m1665.65,835.89s11.38-56.76-5.52-78.47c-16.9-21.71-116.11-61.53-128.54-51.22-12.42,10.31-.62,23.53-.62,23.53,0,0-39.89-13.96-49.93,21.48-10.04,35.43,76.09,52.88,128.14,37.54,0,0,33.88,10.85,56.47,47.14Z"/>
        </g>
        <g class="cls-16">
          <rect class="cls-14" x="1012" y="1070.75" width="728.81" height="90.67"/>
        </g>
        <g>
          <polygon class="cls-13" points="675.12 1595.59 627.59 1596.25 626.91 1551.42 674.25 1545.5 675.12 1595.59"/>
          <polygon class="cls-13" points="593.28 1595.59 545.75 1596.25 545.07 1551.42 592.41 1545.5 593.28 1595.59"/>
          <path class="cls-15" d="m598.35,1207.55c1.57,46.29,8.42,227.38,22.81,345.86.95,7.81,7.57,13.7,15.43,13.68,8.71-.02,20.82-1.06,34.25-5.16,6.49-1.98,10.99-7.88,11.1-14.66l5.85-360.51c.01-.88-.05-1.75-.18-2.62l-.27-1.78c-1.51-9.81-11.7-15.72-20.96-12.16l-58.06,22.3c-6.19,2.38-10.2,8.41-9.97,15.05Z"/>
          <path class="cls-30" d="m534.5,1198.21s-3.95,222.68,6.35,360.04c.49,6.5,5.65,11.64,12.15,12.13,9.2.7,23.22.59,39.01-3.6,5.36-1.42,9.26-6.05,9.74-11.57l27.56-319.35,16.97-88.67-111.78,51.01Z"/>
          <path class="cls-18" d="m516.78,1127.34c.97,8.9,6.3,140.87,21.11,151.76,14.81,10.89,156.48.43,159.78-12.44,3.3-12.87-3.66-150.78-3.66-150.78l-177.23,11.46Z"/>
          <path class="cls-18" d="m676.75,1065.16c1.91.03,77.68,35.72,77.68,35.72l-16.51,29.12-42.83-10.94-18.34-53.9Z"/>
          <path class="cls-18" d="m538.18,928.37c18.67-1.94,67.77-2.04,67.77-2.04,0,0,6.44,1.93,4.4.89,53.82,11.41,58.44,51.77,58.44,51.77l22.48,116.92,29.36,2.6c8.9,18.36.25,66.77.25,66.77l-143.02,11.2s-30.97,4.03-55.87-30.26c-16.48-22.68-20.03-90.73-18.33-140.3,0,0,5.51-74.54,34.52-77.55Z"/>
          <path class="cls-36" d="m679.56,1079.74c.4.17.87.03,1.11-.35l6.39-10.14-.07-.35-17.31-90.04c-.1-.81-1.51-11.28-9.94-23.06-7.91-11.05-23.76-25.29-54.37-30.43-.49-.08-.95.25-1.04.74-.08.49.25.95.74,1.04,29.94,5.03,45.43,18.88,53.14,29.62,8.36,11.64,9.67,22.23,9.68,22.34v.07s17.26,89.73,17.26,89.73l-6.01,9.54c-.26.42-.14.98.28,1.24.04.03.09.05.13.07Z"/>
          <path class="cls-36" d="m711.4,1081.15c.45.19.97-.02,1.17-.47.2-.46,0-.99-.46-1.19l-25.64-11.26c-.47-.18-.99,0-1.19.46-.2.46,0,.99.46,1.19l25.64,11.26s.01,0,.02,0Z"/>
          <path class="cls-18" d="m546.34,961.48l17.42-29.21,30.61,9.25,12.42-13.21s2.64,12.2,2.56,13.21-13.99,15.46-15.77,15.31-47.24,4.66-47.24,4.66Z"/>
          <path class="cls-36" d="m548.83,1283.26c.54,0,1.01-.42,1.04-.97.04-.58-.39-1.08-.97-1.12-14.7-1.05-16.72-13.55-20.06-34.25-.6-3.72-1.22-7.57-1.97-11.71-4.98-27.5-7.17-94.12-7.19-94.79-.02-.57-.48-1.02-1.05-1.02-.01,0-.02,0-.03,0-.58.02-1.03.5-1.01,1.08.02.67,2.22,67.44,7.22,95.09.75,4.12,1.37,7.95,1.97,11.67,3.39,20.98,5.63,34.84,21.98,36.01.03,0,.05,0,.08,0Z"/>
          <g>
            <path class="cls-2" d="m778.89,1015.79l20.01,9.37,1.31.62,20.01,9.37-90.69,234.79c-2.55,6.6-10.16,9.66-16.57,6.66l-50.93-23.86c-6.41-3-8.93-10.81-5.49-17l122.35-219.96Z"/>
            <path class="cls-19" d="m780.43,999.94h47.65c4.92,0,8.92,4,8.92,8.92v23.02h-65.49v-23.02c0-4.92,4-8.92,8.92-8.92Z" transform="translate(1101.58 2277.05) rotate(-154.9)"/>
            <path class="cls-36" d="m785.04,1025.74l32.28,15.12c5.7,2.67,12.51.21,15.18-5.49l9.17-19.57-1.97-.92-9.17,19.57c-2.16,4.61-7.67,6.6-12.28,4.44l-32.28-15.12-.92,1.97Z"/>
            <g class="cls-22">
              <circle class="cls-20" cx="862.93" cy="891.81" r="119.68" transform="translate(-377.86 871.39) rotate(-45)"/>
            </g>
            <ellipse class="cls-21" cx="838.99" cy="820.48" rx="44.95" ry="21.47" transform="translate(-229.16 334.53) rotate(-19.9)"/>
            <rect class="cls-36" x="648.16" y="1155.4" width="249.79" height="2.18" transform="translate(-583.73 1463.44) rotate(-68.99)"/>
            <path class="cls-36" d="m960.55,857.06l2.12-.47c-.06-.27-6.19-26.83-27.02-42.67l-1.32,1.73c20.18,15.34,26.16,41.15,26.21,41.41Z"/>
            <path class="cls-36" d="m948.7,866.29l2.12-.47c-.06-.27-6.19-26.83-27.02-42.67l-1.32,1.73c20.18,15.34,26.16,41.15,26.21,41.41Z"/>
            <path class="cls-29" d="m812.15,1000.19c-59.86-28.04-85.65-99.3-57.61-159.15,28.04-59.86,99.3-85.65,159.15-57.61,59.86,28.04,85.65,99.3,57.61,159.15-28.04,59.86-99.3,85.65-159.15,57.61Zm176.39-49.53c32.5-69.37,2.61-151.96-66.77-184.46-69.37-32.5-151.96-2.61-184.46,66.77-32.5,69.37-2.61,151.96,66.77,184.46,69.37,32.5,151.96,2.61,184.46-66.77Z"/>
            <path class="cls-36" d="m803.62,1018.41c69.81,32.7,153.21,2.52,185.91-67.29,32.7-69.81,2.52-153.21-67.29-185.91-32.73-15.33-69.61-17.43-103.85-5.92l.69,2.06c33.71-11.33,70.01-9.26,102.23,5.83,68.72,32.19,98.44,114.29,66.24,183.01-32.19,68.72-114.29,98.44-183.01,66.24-31.9-14.94-56.6-41.2-69.57-73.93l-2.02.8c13.17,33.25,38.26,59.93,70.67,75.1Z"/>
          </g>
          <path class="cls-13" d="m776.83,1140.3c.09-2.32-1.92-4.35-4.23-4.5l-14.33-.96c-.45-.03-.83-.34-.95-.78h0c-.17-.64.29-1.28.95-1.33l21.21-1.4c2.43-.16,3.9-2.22,3.27-4.57h0c-.63-2.35-3.14-4.15-5.57-3.98l-21.63,1.43c-.5.03-.96-.29-1.09-.78l-.09-.34c-.15-.56.18-1.14.75-1.29l23.19-6.23c2.24-.6,3.81-2.98,3.28-5.24-.57-2.39-2.99-3.83-5.35-3.2l-23.37,6.28c-.56.15-1.14-.18-1.29-.75l-.29-1.09c-.14-.51.13-1.05.62-1.25l20.74-8.59c2.14-.89,3.39-3.45,2.57-5.62-.87-2.3-3.47-3.41-5.72-2.47,0,0-17.47,6.54-22.68,7.92l-4.83.26c7.06,6.62-.91-2.42-6.72-3.59-6.44-1.3-23.44,14.44-23.44,14.44-.78,1.35.02,4.38,1.25,6.66,4.74,25.19,5.68,29.03,7.59,35.71l26.2-8c7.56-2.31,15.48-3.22,23.37-2.69l1.98.13c2.44.16,4.54-1.72,4.63-4.18Z"/>
          <path class="cls-18" d="m720.61,1098.51s8.65,22.51.25,66.77l-29.45,1.65,7.05-54.16,22.15-14.26Z"/>
          <path class="cls-18" d="m570.03,923.55s-32.66-2.26-48.57,6.05c-23.74,12.4-18.02,88.26-18.02,88.26,0,0,20.16-10.12,21.48-13.68,1.32-3.56,45.11-80.63,45.11-80.63Z"/>
          <path class="cls-36" d="m580.48,1094.15c.16.07.34.09.52.05.49-.1.8-.57.71-1.06-.13-.64-12.86-64.44-17.84-104.49-.06-.49-.51-.84-1-.78-.49.06-.84.51-.78,1,4.99,40.11,17.73,103.98,17.86,104.62.06.31.27.54.54.65Z"/>
          <path class="cls-36" d="m668.74,1095.65c-.15.13-.34.21-.54.22-.5.03-.92-.35-.95-.85-.04-.74-4.29-74.15-8.59-98.45-.09-.49.24-.96.73-1.04.49-.09.96.24,1.04.73,4.31,24.41,8.57,97.92,8.61,98.66.02.29-.1.55-.3.73Z"/>
          <path class="cls-36" d="m556.51,1087.33s.08.03.12.04l23.87,6.32c.48.13.97-.16,1.1-.64s-.16-.97-.64-1.1l-23.87-6.32c-.48-.13-.97.16-1.1.64-.12.44.11.89.52,1.06Z"/>
          <path class="cls-36" d="m549.38,1093.89c.11.04.22.07.34.07,1.29,0,128.71.52,170.24,5.38.93,2.77,5.15,17.06,2.95,42.85-.04.5.32.93.82.97.5.04.93-.33.97-.82,2.49-29.23-3.01-43.57-3.25-44.17l-.2-.5-.53-.06c-41.04-4.93-169.71-5.45-171.01-5.46-.5,0-.9.4-.9.9,0,.38.23.7.55.83Z"/>
          <path class="cls-36" d="m601.34,1173.46c52.03,0,115.72-6.71,119.65-7.13.57-.06.99-.58.93-1.15-.06-.58-.55-1-1.16-.93-1.42.15-142.37,15.01-177.77,1.13-34.99-13.72-37.43-90.81-37.45-91.58-.01-.58-.5-1.05-1.08-1.02-.58.02-1.04.5-1.02,1.08.09,3.23,2.5,79.26,38.79,93.48,11.67,4.57,34.04,6.13,59.11,6.13Z"/>
          <path class="cls-13" d="m604.47,853.58l5.41,36.16s2.33,12.15-8.07,15.26l4.42,16.01c1.64,5.95-1.09,12.29-6.6,15-2.69,1.32-5.97,2.49-9.8,3.06-12.15,1.82-20.1-6.37-21.79-10.8-1.7-4.43-1.93-26.79-1.93-26.79l-1.98-10.71-4.85-41.9,45.2,4.7Z"/>
          <path class="cls-36" d="m559.33,844.67s-11.29,8.14-1.48,31.9l4.27-3.08-3.52-12.88.73-15.95Z"/>
          <path class="cls-36" d="m578.56,871.65c-.13.02-.26,0-.37-.09-.23-.16-.29-.49-.12-.72.06-.08,5.95-8.29,13.08-4.08.24.14.33.46.18.7-.14.25-.46.33-.7.18-6.32-3.73-11.51,3.48-11.73,3.79-.08.12-.21.19-.34.21Z"/>
          <path class="cls-36" d="m598.25,869.87c-.14.02-.29-.02-.41-.12-.21-.19-.24-.51-.06-.73.18-.21,4.38-5.09,7.83-2.91.24.15.31.47.16.71-.15.24-.47.31-.71.16-2.7-1.71-6.47,2.66-6.51,2.71-.08.1-.19.16-.31.17Z"/>
          <path d="m588.39,876.57c.13.84-.45,1.63-1.29,1.75-.84.13-1.62-.46-1.75-1.3-.13-.84.45-1.63,1.29-1.75.84-.13,1.62.46,1.75,1.3Z"/>
          <path d="m604.3,872.63c.13.84-.45,1.63-1.29,1.75-.84.13-1.62-.46-1.75-1.3-.13-.84.45-1.63,1.29-1.75.84-.13,1.62.46,1.75,1.3Z"/>
          <path class="cls-13" d="m570.75,879.75c.76,5.06-2.71,9.78-7.74,10.53-5.03.75-9.72-2.74-10.48-7.81-.76-5.06,2.71-9.78,7.74-10.53s9.72,2.74,10.48,7.81Z"/>
          <path class="cls-12" d="m561.81,886.83c-1.89.28-3.37-.96-4-2.33-.75-1.62-.43-3.35.81-4.4,1.83-1.56,3.78-1.03,4.81-.55-.55-.98-1.28-1.65-2.18-1.98-1.94-.73-4.06.33-4.08.34-.13.06-.28.01-.34-.11-.06-.13-.01-.28.11-.35.09-.05,2.33-1.17,4.49-.37,1.24.46,2.19,1.47,2.82,2.99l.35.85-.74-.55c-.1-.08-2.59-1.87-4.91.11-1.29,1.1-1.17,2.73-.68,3.8.51,1.11,1.72,2.29,3.46,2.03.02,0,.03,0,.05,0,.14-.02.27.07.29.21.02.14-.07.27-.21.3-.02,0-.04,0-.05,0Z"/>
          <path class="cls-36" d="m610.78,883.72s6.97,23.99-9.06,27.28c-22.94,4.7-27.16-8.24-30.16-18.9l-3.58-22.39-.23-6.62h0c1.91,1.62,3.26,3.8,3.85,6.24,1.28,5.31,4.63,19.62,6.06,20.06,2.02.62,29.17-7.49,33.12-5.67Z"/>
          <path class="cls-12" d="m595.28,886.08c-.11.02-.22-.04-.27-.14-.06-.13-.01-.28.11-.35l4.82-2.45-3.4-11.77c-.04-.14.04-.28.17-.32.14-.04.28.04.32.18l3.52,12.19-5.2,2.64s-.05.02-.08.02Z"/>
          <path class="cls-36" d="m567.76,863.51l-5.2-3.48-3.03,12.08s6,.09,7.01,6.16-.85,16.06,11.73,28.14-3.89-20.25-4.17-21.42-6.33-21.48-6.33-21.48Z"/>
          <path class="cls-36" d="m559.33,844.67c4.16-5.57,20.67-10.86,33.83-5.39h0c14.76,4.66,12.48,19,12.09,19.47l-.2-.11c.12.31.23.61.32.92,0,0-.72-.84-2.14-1.93l-6.03-3.33c-3.28-1.25-7.57-2.12-12.88-1.67-5.27.44-9.79,1.41-13.36,3.12-.53,3.25-.41,9.53,2.56,21.48,4.54,18.23-6.89-3-11.11-11.15-.39,1.7-.58,3.57-.5,5.67,0,0-10.91-15.92-2.58-27.08Z"/>
          <path class="cls-13" d="m605.99,863.74s-.75-7.48-1.35-9.05c-.6-1.57-17.82-3.77-26.68-1.18-8.86,2.59,10.17,9.94,10.37,9.91s17.66.32,17.66.32Z"/>
          <polygon class="cls-13" points="572.8 856.22 562.84 849.4 572.86 860.06 572.8 856.22"/>
          <path class="cls-33" d="m604.87,916.09l1.35,9.42s-8.09,6.88-13.28,10.52c-10.28-7.13-25.67-12.61-25.67-12.61l-.98-13.92c-19.08-2.18-38.9,10.65-33.92,16.83,4.97,6.18,30.82,8.08,37.68,10.33,6.77,2.22,24.05,7.47,24.05,7.47,4.55-3.38,16.75-17.72,16.75-17.72l12.35,3.43c.24-12.54-18.32-13.75-18.32-13.75Z"/>
          <path d="m594.09,944.82c.18,0,.36-.07.5-.21l21.56-21.9c.27-.28.27-.72,0-.99-.27-.27-.72-.27-.99,0l-21.56,21.9c-.27.28-.27.72,0,.99.14.13.31.2.49.2Z"/>
          <polygon class="cls-2" points="740.17 1085.4 727.73 1107.76 746.79 1101.55 740.17 1085.4"/>
          <g>
            <path class="cls-23" d="m626.85,1597h41.55l16.84-18.82,30.81,18.82h6.64c2.29,0,4.38,1.59,4.81,3.89.58,3.1-1.72,5.81-4.64,5.81h-96.61c-.71,0-1.29-.59-1.29-1.32v-6.46c0-1.06.84-1.93,1.88-1.93Z"/>
            <path class="cls-4" d="m627.22,1597.06v-17.5s7-9.66,17.65-4.73c0,0,16.11,11.73,30.32-2.46l35.27,16.05s9.67,3.32,12.29,8.64h-95.54Z"/>
            <rect x="626.86" y="1579.56" width=".71" height="17.41"/>
            <path d="m659.31,1579.75c1.35,0,2.16-.12,2.19-.12l-.1-.72c-.08.01-8.41,1.21-16.33-4.38l-.4.6c5.67,4,11.56,4.62,14.64,4.62Z"/>
            <polygon points="635.8 1593.79 636.2 1593.19 631.69 1590.07 631.3 1590.67 635.8 1593.79"/>
            <polygon points="639.03 1592.91 639.43 1592.3 634.92 1589.19 634.53 1589.79 639.03 1592.91"/>
            <path d="m726.15,1605.86c1.14-.99,1.79-2.44,1.79-3.98,0-2.87-2.28-5.21-5.08-5.21h-95.52c-1.5,0-2.72,1.25-2.72,2.8v4.84h.71v-4.84c0-1.14.9-2.07,2.02-2.07h95.52c2.41,0,4.37,2.01,4.37,4.49,0,1.32-.56,2.57-1.55,3.42l.46.55Z"/>
            <path d="m722.54,1597.19l.64-.31c-.08-.17-2.01-4.24-9.23-7.4-7.1-3.1-38.3-17.3-38.62-17.45l-.29.66c.32.14,31.53,14.34,38.63,17.45,6.95,3.04,8.85,7,8.87,7.04Z"/>
          </g>
          <g>
            <path class="cls-23" d="m544.18,1597h41.55l16.84-18.82,30.81,18.82h6.64c2.29,0,4.38,1.59,4.81,3.89.58,3.1-1.72,5.81-4.64,5.81h-96.61c-.71,0-1.29-.59-1.29-1.32v-6.46c0-1.06.84-1.93,1.88-1.93Z"/>
            <path class="cls-2" d="m544.55,1597.06v-17.5s7-9.66,17.65-4.73c0,0,16.11,11.73,30.32-2.46l35.27,16.05s9.67,3.32,12.29,8.64h-95.54Z"/>
            <rect x="544.2" y="1579.56" width=".71" height="17.41"/>
            <path d="m576.64,1579.75c1.35,0,2.16-.12,2.19-.12l-.1-.72c-.08.01-8.41,1.21-16.33-4.38l-.4.6c5.67,4,11.56,4.62,14.64,4.62Z"/>
            <polygon points="553.14 1593.79 553.53 1593.19 549.03 1590.07 548.63 1590.67 553.14 1593.79"/>
            <polygon points="556.37 1592.91 556.76 1592.3 552.26 1589.19 551.86 1589.79 556.37 1592.91"/>
            <path d="m643.48,1605.86c1.14-.99,1.79-2.44,1.79-3.98,0-2.87-2.28-5.21-5.08-5.21h-95.52c-1.5,0-2.72,1.25-2.72,2.8v4.84h.71v-4.84c0-1.14.9-2.07,2.02-2.07h95.52c2.41,0,4.37,2.01,4.37,4.49,0,1.32-.56,2.57-1.55,3.42l.46.55Z"/>
            <path d="m639.88,1597.19l.64-.31c-.08-.17-2.01-4.24-9.23-7.4-7.1-3.1-38.3-17.3-38.62-17.45l-.29.66c.32.14,31.53,14.34,38.63,17.45,6.95,3.04,8.85,7,8.87,7.04Z"/>
          </g>
        </g>
        <g>
          <g>
            <path class="cls-1" d="m821.84,1732.98s-24,60.37-3.87,106.04l-461.33,3.87-42.57-3.87-37.52-23.25v-35.58l10.43-29.41,34.06-17.8h500.8Z"/>
            <path class="cls-26" d="m335.03,1848.77h498.42c3.25,0,5.88-2.63,5.88-5.88s-2.63-5.88-5.88-5.88h-498.42c-30.09,0-54.56-22.71-54.56-50.63s24.48-50.63,54.56-50.63h498.42c3.25,0,5.88-2.63,5.88-5.88s-2.63-5.88-5.88-5.88h-498.42c-36.57,0-66.32,27.98-66.32,62.38s29.75,62.38,66.32,62.38Z"/>
            <path class="cls-24" d="m815.06,1787.69h-244.6c-.72,0-1.31-.58-1.31-1.31s.58-1.31,1.31-1.31h244.6c.72,0,1.31.58,1.31,1.31s-.58,1.31-1.31,1.31Z"/>
            <path class="cls-24" d="m536.02,1787.69h-237.63c-.72,0-1.31-.58-1.31-1.31s.58-1.31,1.31-1.31h237.63c.72,0,1.31.58,1.31,1.31s-.58,1.31-1.31,1.31Z"/>
            <path class="cls-24" d="m426.7,1811.09h-121.92c-.72,0-1.31-.58-1.31-1.31s.58-1.31,1.31-1.31h121.92c.72,0,1.31.58,1.31,1.31s-.58,1.31-1.31,1.31Z"/>
            <path class="cls-24" d="m815.06,1811.09h-370.47c-.72,0-1.31-.58-1.31-1.31s.58-1.31,1.31-1.31h370.47c.72,0,1.31.58,1.31,1.31s-.58,1.31-1.31,1.31Z"/>
            <path class="cls-36" d="m833.45,1850.07h-498.42c-37.29,0-67.62-28.57-67.62-63.69s30.34-63.69,67.62-63.69h498.42c3.96,0,7.18,3.22,7.18,7.18s-3.22,7.18-7.18,7.18c-.72,0-1.31-.58-1.31-1.31s.58-1.31,1.31-1.31c2.52,0,4.57-2.05,4.57-4.57s-2.05-4.57-4.57-4.57h-498.42c-35.85,0-65.01,27.4-65.01,61.08s29.16,61.08,65.01,61.08h498.42c2.52,0,4.57-2.05,4.57-4.57s-2.05-4.57-4.57-4.57c-.72,0-1.31-.58-1.31-1.31s.58-1.31,1.31-1.31c3.96,0,7.18,3.22,7.18,7.18s-3.22,7.18-7.18,7.18Z"/>
            <path class="cls-30" d="m754.45,1762.97s15.7,39.1,6.65,67.89l-12.75-19.71s-8.71,10.45-14.05,19.71c0,0-9.74-64.3-28.62-67.89h48.77Z"/>
            <path class="cls-24" d="m815.06,1764.28h-510.28c-.72,0-1.31-.58-1.31-1.31s.58-1.31,1.31-1.31h510.28c.72,0,1.31.58,1.31,1.31s-.58,1.31-1.31,1.31Z"/>
          </g>
          <path class="cls-1" d="m276.43,1616.54s22.27,56.03,3.59,98.42l428.15,3.59,39.51-3.59,34.82-21.58v-33.02l-9.68-27.3-31.61-16.52h-464.78Z"/>
          <path class="cls-8" d="m728.23,1724h-462.57c-3.01,0-5.46-2.44-5.46-5.45s2.44-5.46,5.46-5.46h462.57c27.92,0,50.64-21.08,50.64-46.99s-22.72-46.98-50.64-46.98h-462.57c-3.01,0-5.46-2.44-5.46-5.46s2.44-5.46,5.46-5.46h462.57c33.94,0,61.55,25.97,61.55,57.9s-27.61,57.9-61.55,57.9Z"/>
          <path class="cls-24" d="m641.3,1667.41h-227c-.72,0-1.31-.58-1.31-1.31s.58-1.31,1.31-1.31h227c.72,0,1.31.58,1.31,1.31s-.58,1.31-1.31,1.31Z"/>
          <path class="cls-24" d="m762.23,1667.41h-220.54c-.72,0-1.31-.58-1.31-1.31s.58-1.31,1.31-1.31h220.54c.72,0,1.31.58,1.31,1.31s-.58,1.31-1.31,1.31Z"/>
          <path class="cls-24" d="m756.3,1689.13h-113.15c-.72,0-1.31-.58-1.31-1.31s.58-1.31,1.31-1.31h113.15c.72,0,1.31.58,1.31,1.31s-.58,1.31-1.31,1.31Z"/>
          <path class="cls-24" d="m756.3,1645.68h-473.58c-.72,0-1.31-.58-1.31-1.31s.58-1.31,1.31-1.31h473.58c.72,0,1.31.58,1.31,1.31s-.58,1.31-1.31,1.31Z"/>
          <path class="cls-36" d="m728.23,1725.31h-462.57c-3.73,0-6.76-3.03-6.76-6.76s3.03-6.76,6.76-6.76c.72,0,1.31.58,1.31,1.31s-.58,1.31-1.31,1.31c-2.29,0-4.15,1.86-4.15,4.15s1.86,4.15,4.15,4.15h462.57c33.22,0,60.24-25.39,60.24-56.59s-27.02-56.59-60.24-56.59h-462.57c-2.29,0-4.15,1.86-4.15,4.15s1.86,4.15,4.15,4.15c.72,0,1.31.58,1.31,1.31s-.58,1.31-1.31,1.31c-3.73,0-6.76-3.03-6.76-6.76s3.03-6.76,6.76-6.76h462.57c34.66,0,62.85,26.56,62.85,59.2s-28.2,59.2-62.85,59.2Z"/>
          <path class="cls-34" d="m553.36,1687.82s-15.7,39.1-6.65,67.89l12.75-19.71s8.71,10.45,14.05,19.71c0,0,9.74-64.3,28.62-67.89h-48.77Z"/>
          <path class="cls-24" d="m626.55,1689.13h-343.83c-.72,0-1.31-.58-1.31-1.31s.58-1.31,1.31-1.31h343.83c.72,0,1.31.58,1.31,1.31s-.58,1.31-1.31,1.31Z"/>
        </g>
        <g>
          <g>
            <path class="cls-8" d="m282.02,1368.1s4.72-65.75,30.24-52.99c25.52,12.76,46.33,96.55,49.11,99.05s1.94,79.07,1.94,79.07l-29.69-14.98s-7.9-183.03-51.6-110.15Z"/>
            <path class="cls-30" d="m310.62,1231.96s57.19,51.17,72.8,138.91c15.61,87.74-33.71,113.56-33.71,113.56,0,0-7.02-184.49-39.09-252.48Z"/>
            <path class="cls-8" d="m416.71,1496.28s9.57-186.78,57.85-267.76c0,0-84.75,50.56-112.85,183.28-1.58,7.47-2.52,15.78-3.72,23.77-1.25,8.32-1.99,15.69-1.8,23.04.34,13,2.14,24.16,2.67,32.37,4.58,70.91,57.86,5.3,57.86,5.3Z"/>
            <path class="cls-30" d="m415.08,1416.97c3.28-26.63,13.4-52.01,29.65-73.36,11.74-15.42,25.33-27.14,35.94-18.78,23.58,18.59,28.3,134,28.3,134,0,0-26.63-79.9-38.29-74.63-11.65,5.27-22.47,113.75-22.47,113.75l-43.56,3.61,10.43-84.59Z"/>
            <path class="cls-36" d="m355.67,1489.76c-1.79-40.78,3.33-79.92,15.2-116.33,9.5-29.13,23.33-56.59,41.09-81.62,30.25-42.62,61.9-63.68,62.22-63.88l.77,1.18c-.31.21-31.78,21.15-61.88,63.57-27.77,39.14-60.03,105.09-56,197.02l-1.41.06Z"/>
            <path class="cls-36" d="m349.01,1484.47c-.02-.46-1.82-46.73-7.52-100.7-5.25-49.78-14.98-116.47-31.51-151.5l1.28-.6c16.61,35.21,26.37,102.07,31.64,151.96,5.7,54.02,7.5,100.33,7.52,100.79l-1.41.05Z"/>
            <path class="cls-36" d="m332.92,1478.28c-.01-.3-1.35-30.38-5.77-60.86-5.81-40.08-14.21-62.63-24.29-65.22-5.95-1.52-12.76,3.95-20.23,16.27l-1.21-.73c7.83-12.91,15.16-18.6,21.79-16.9,10.83,2.78,19.35,25.11,25.34,66.39,4.43,30.55,5.77,60.7,5.79,61l-1.41.06Z"/>
            <path class="cls-36" d="m405.34,1501.64l-1.4-.17,10.43-84.59c3.33-26.99,13.63-52.48,29.78-73.7,10.23-13.44,19.32-20.75,27.01-21.73,3.63-.46,6.97.49,9.93,2.82,9.93,7.83,17.75,32.87,23.26,74.43,4.08,30.85,5.3,59.81,5.31,60.09l-1.41.06c-.05-1.15-4.97-115.3-28.03-133.48-2.65-2.09-5.64-2.94-8.88-2.53-7.3.93-16.07,8.05-26.06,21.18-16,21.03-26.21,46.28-29.51,73.02l-10.43,84.59Z"/>
            <rect class="cls-36" x="436.7" y="1405.82" width="19.96" height="1.41" transform="translate(-1008.11 1158.73) rotate(-62.72)"/>
            <rect class="cls-36" x="437.19" y="1417.23" width="18.97" height="1.41" transform="translate(-1010.82 1125.07) rotate(-61.15)"/>
            <rect class="cls-36" x="351.75" y="1290.98" width="1.41" height="18.87" transform="translate(-507.32 263.07) rotate(-24.49)"/>
            <rect class="cls-36" x="352.34" y="1304.45" width="1.41" height="13.74" transform="translate(-591.34 335.44) rotate(-28.99)"/>
            <rect class="cls-36" x="311.14" y="1317.96" width="1.41" height="14.95" transform="translate(-1010.67 1001.4) rotate(-62.99)"/>
            <rect class="cls-36" x="313.86" y="1327.6" width="1.41" height="9.22" transform="translate(-987.07 908.55) rotate(-58.69)"/>
          </g>
          <path class="cls-26" d="m318.5,1473.5s2.49,136.55,39.06,133.35h62.14c36.57,3.2,39.06-133.35,39.06-133.35-34.61-5.23-105.65-5.23-140.26,0Z"/>
          <rect class="cls-36" x="395.57" y="1511.86" width="58.12" height="1.41" transform="translate(-965.66 780.95) rotate(-46.56)"/>
          <rect class="cls-36" x="405.11" y="1530.58" width="33.53" height="1.41" transform="translate(-1010.41 844.73) rotate(-48.99)"/>
        </g>
        <g>
          <g>
            <path class="cls-13" d="m2041.79,1010.29s-14.5-7.1-27.91-3.27c-7.76,2.22-13.22,9.2-13.64,17.26l-.42,7.88,41.51-15.17s6.26,3.38,5.79,2.43c-.47-.95-5.33-9.13-5.33-9.13Z"/>
            <g>
              <path class="cls-13" d="m2000.29,1023.39l-1.77,33.25s-1.13,11.85,9.19,13.89l-2.78,15.75c-1.03,5.85,2.19,11.68,7.75,13.78,2.72,1.02,5.99,1.84,9.74,2.04,11.88.63,18.79-7.94,20.02-12.34,1.23-4.4-.61-25.85-.61-25.85l.92-10.44.8-40.6-43.25,10.52Z"/>
              <path class="cls-36" d="m2028.14,1040.6c.12,0,.25-.03.35-.12.21-.18.23-.49.05-.7-.06-.07-6.5-7.4-12.99-2.72-.22.16-.27.47-.11.69.16.22.47.27.69.11,5.75-4.15,11.42,2.29,11.66,2.56.09.11.22.16.35.17Z"/>
              <path class="cls-36" d="m2007.89,1036.54c.14,0,.28-.04.38-.15.19-.2.18-.51-.01-.7-.19-.18-4.7-4.47-7.82-2.07-.22.17-.26.48-.09.69.17.22.48.26.7.09,2.45-1.88,6.49,1.96,6.53,2,.09.09.2.13.32.14Z"/>
              <path d="m2018.03,1042.07c-.04.82.59,1.52,1.41,1.56.82.04,1.52-.59,1.56-1.41.04-.82-.59-1.52-1.41-1.56-.82-.04-1.52.59-1.56,1.41Z"/>
              <path d="m2002.32,1039.74c-.04.82.59,1.52,1.41,1.56.82.04,1.52-.59,1.56-1.41.04-.82-.59-1.52-1.41-1.56-.82-.04-1.52.59-1.56,1.41Z"/>
              <path class="cls-36" d="m2041.82,1009.77s12.61.06,15.21,11.24c2.61,11.17-3.14,16.7-3.43,19.97-.28,3.27.76,25.5-14.67,23.03l-2.25-36.75,6.18-14.25-1.04-3.23Z"/>
              <path class="cls-13" d="m2030.32,1042.2c-.26,4.92,3.52,9.12,8.44,9.38,4.92.26,9.12-3.52,9.38-8.44s-3.52-9.12-8.44-9.38-9.12,3.52-9.38,8.44Z"/>
              <path class="cls-12" d="m2039.6,1048.17c1.85.1,3.16-1.23,3.64-2.6.57-1.62.1-3.25-1.19-4.15-1.91-1.33-3.74-.64-4.69-.08.44-.99,1.08-1.7,1.92-2.1,1.81-.87,3.95-.05,3.97-.05.13.05.27-.01.32-.14.05-.13-.01-.27-.14-.32-.1-.04-2.36-.91-4.36.06-1.16.56-1.98,1.61-2.45,3.13l-.26.85.66-.59c.09-.08,2.32-2.03,4.74-.35,1.34.93,1.38,2.51,1.01,3.58-.39,1.11-1.44,2.36-3.15,2.27-.02,0-.03,0-.05,0-.13,0-.25.1-.26.23,0,.14.09.25.23.26.02,0,.04,0,.05,0Z"/>
              <path class="cls-12" d="m2032.35,1061.73s-1.75,19.85-26.69,20.43l2.05-11.62s15.94,4.09,24.64-8.81Z"/>
              <path class="cls-12" d="m2012.25,1051.81c.1,0,.2-.06.24-.16.05-.13-.01-.27-.14-.32l-4.87-1.9,2.19-11.59c.03-.13-.06-.26-.2-.29-.14-.03-.26.06-.29.2l-2.27,12,5.26,2.05s.05.02.08.02Z"/>
              <polygon class="cls-13" points="2042.05 1066.7 2041.21 1049.84 2037.02 1050.08 2036.13 1066.87 2042.05 1066.7"/>
            </g>
            <path class="cls-36" d="m2039.51,1009.32s2.55,7.11-2.85,18.46c-5.4,11.35,12.5-3.68,12.5-3.68,0,0-.28-17.05-9.64-14.79Z"/>
          </g>
          <path class="cls-36" d="m2036.66,1027.78s-37.72-4.25-39.58-13.24c-1.86-8.99,7.05-8.75,7.05-8.75,0,0-1-12.69,10.24-8.35s32.44,4.98,37.83,15.89c5.39,10.91-15.53,14.45-15.53,14.45Z"/>
          <path class="cls-36" d="m2037.11,1034.15l-2,6.82-1.54-2.15s-2.71-10.09-.22-14.73c2.49-4.64,11.06,2.68,11.06,2.68l-7.31,7.38Z"/>
          <path class="cls-11" d="m2005.48,1055.63c.16-.03,10.4-.38,10.4-.38,0,0-1.24,4.25-5.05,4.39-3.8.14-5.35-4.01-5.35-4.01Z"/>
          <polygon class="cls-13" points="2055.35 1838.24 2102 1838.88 2102.67 1794.89 2056.2 1789.08 2055.35 1838.24"/>
          <polygon class="cls-13" points="1949.77 1838.24 1996.42 1838.88 1997.08 1794.89 1950.62 1789.08 1949.77 1838.24"/>
          <g>
            <path class="cls-13" d="m1948.49,1442.96c7.13,9.16,8.97.13,8.97.13,4.33,4.52,6.53,3.67,7.61,2.17.79-1.1.96-2.53.55-3.81-1.31-4.09-5.34-16.57-8.33-24.22.7-5.27,9.52-3.04,13.94-.39,2.28,1.36,6.17,1.69,2.6-4.3-2.92-4.89-13.03-12.58-13.03-12.58l4.63-29.32-40.91,1.91s-1.58,33.69-1.86,38.77c-.27,5.08,4.47,22.42,8.63,27.82,7.54,9.81,8.31,3.97,8.31,3.97,8.78,9.45,8.88-.15,8.88-.15Z"/>
            <path class="cls-12" d="m1951.4,1432.04c0-.26.16-.5.41-.59.32-.11.67.06.78.38,1.53,4.48,5.36,10.88,5.4,10.95.17.29.08.66-.21.84-.29.17-.67.08-.84-.21-.16-.27-3.93-6.58-5.5-11.18-.02-.06-.03-.13-.03-.19Z"/>
            <path class="cls-12" d="m1943.66,1432.17c0-.29.2-.55.49-.61.33-.07.65.15.72.48,1.15,5.64,4.11,10.55,4.14,10.6.18.29.08.67-.2.84-.29.18-.66.08-.84-.2-.13-.21-3.1-5.14-4.29-10.99,0-.04-.01-.08-.01-.11Z"/>
            <path class="cls-12" d="m1934.86,1433.69c0-.28.19-.54.47-.61.33-.08.66.13.73.46,1.13,4.84,4.02,9.2,4.05,9.24.19.28.11.66-.17.85-.28.19-.66.11-.85-.17-.12-.18-3.04-4.59-4.22-9.64-.01-.04-.02-.09-.02-.13Z"/>
          </g>
          <path class="cls-31" d="m1920.75,1385.19l.73,14.26s7.43,4.97,21.1,4.59l-3.44-18.85h-18.39Z"/>
          <path class="cls-6" d="m2032.2,1341.8s-6.19,291.8-27.49,460.21c0,0-28.38,8.93-64.05-7.76l-1.51-430.08-5.15-64.43,98.2,42.06Z"/>
          <path class="cls-25" d="m2107.08,1344.62s12.47,287.65-1.48,457.15c0,0-26.51,16.7-62.86,2.25l-43.96-413.28-18.66-110.58,126.96,64.46Z"/>
          <path d="m2069.61,1810.54c20.05,0,36.19-7.77,36.42-7.88l.44-.22.09-.48c11.95-64.65,4.32-383.27,4.24-386.48-.01-.53-.45-.96-.98-.96h-.02c-.54.01-.97.46-.96,1.01.08,3.2,7.66,319.99-4.12,385.57-3.98,1.81-33.96,14.57-61.58,2.03-.49-.23-1.08,0-1.3.49-.23.49,0,1.08.49,1.3,9.17,4.17,18.59,5.63,27.28,5.63Z"/>
          <path d="m1984.29,1805.18c6.47,0,13.4-.63,20.64-2.21.53-.12.87-.64.75-1.17-.12-.53-.65-.86-1.17-.75-32.59,7.13-58.94-5.39-62.86-7.39l-1.51-404.62c0-.54-.98-1.7-.98-2.24,0-14.01,0,1.26,0,1.26-.54,0-.98.44-.98.99l1.52,405.78.5.28c.23.13,18.47,10.07,44.1,10.07Z"/>
          <path class="cls-2" d="m1952.39,1094.51s-23.28,9.5-27.16,27.92-13.97,240.87-6.98,262.77h34.14v-290.69Z"/>
          <path class="cls-31" d="m2119.12,1222.72l-15.49,175.38s-92,20.27-163.41-17.21c0,0,11.42-272.15,13.67-283.17,2.65-12.99,73.87-14.05,103.6-10.87,0,0,46.06-1.15,70.69,12.44l-9.06,123.43Z"/>
          <path class="cls-2" d="m2120.95,1183.18v225.23s-58.77,11.24-87.29,0c0,0,.17-313.52,11.81-323.08,1.44.04,30.73.59,51.65,3.18,20.92,2.58,23.83,94.68,23.83,94.68Z"/>
          <path class="cls-2" d="m1998.24,1085.33s-5.89,275.74-11.71,316.73c0,0-23.73,1.58-53.99-8.94,0,0,5.45-287.66,13.25-295.34,7.81-7.68,52.45-12.45,52.45-12.45Z"/>
          <path class="cls-31" d="m2041.72,1085.72s-36.93-.87-43.12.29c0,0,4.86,14.55,5.66,15.13.8.58,24.72,5.46,24.72,5.46,0,0,8.16-4.8,8.52-6.44.36-1.64,4.22-14.44,4.22-14.44Z"/>
          <path d="m2120.95,1255.68c.54,0,.98-.44.98-.98v-46.43c0-.54-.44-.98-.98-.98s-.98.44-.98.98v46.43c0,.54.44.98.98.98Z"/>
          <path d="m2033.66,1409.38h0c.54,0,.98-.44.98-.97-.48-199.61,5.06-268.98,5.11-269.66.04-.53-.36-1-.9-1.04-.53-.03-1.01.35-1.06.89-.06.68-5.61,70.1-5.12,269.82,0,.53.44.96.98.96Z"/>
          <path d="m1932.54,1394.07h.02c.54-.01.97-.45.96-.97-1.92-85.68,13.68-270.96,13.84-272.82.04-.52-.36-.98-.9-1.02-.57-.04-1.02.35-1.06.87-.16,1.86-15.76,187.24-13.85,273.02.01.52.45.93.98.93Z"/>
          <path d="m1996.97,1142.6c.53,0,.97-.43.98-.96l1.3-57.38-1.08.08c-2,.16-49.12,4.01-63.03,20.19-.35.41-.31,1.03.1,1.39.41.35,1.03.31,1.38-.1,12.26-14.25,53.39-18.74,60.62-19.42l-1.25,55.19c-.01.54.42.99.96,1h.02Z"/>
          <path class="cls-23" d="m2196.08,1290.58c-6-30.44,7.14-49.68,16.96-59.82,3.38,9.73,5.81,19.55,6.83,29.33,1.37,13.14-5.7,30.5-16.55,48.64-3.18-4.51-5.73-10.43-7.25-18.15Z"/>
          <g>
            <path class="cls-36" d="m2117.92,1112.27c-.2,0-.4-.09-.53-.27-6.44-8.59-16.96-12.08-17.07-12.11-.35-.11-.54-.49-.43-.84.11-.35.49-.54.84-.43.45.14,11.03,3.65,17.73,12.58.22.29.16.71-.13.93-.12.09-.26.13-.4.13Z"/>
            <path class="cls-36" d="m2116.66,1118.45c-.2,0-.4-.09-.53-.27-6.44-8.59-16.96-12.08-17.07-12.11-.35-.11-.54-.49-.43-.84.11-.35.49-.54.84-.43.45.14,11.03,3.65,17.73,12.58.22.29.16.71-.13.93-.12.09-.26.13-.4.13Z"/>
          </g>
          <path d="m2089.56,1808.17c.54,0,.97-.43.98-.97l1.72-115.4c0-.54-.42-.99-.97-1h-.01c-.54,0-.97.43-.98.97l-1.72,115.4c0,.54.42.99.97,1h.01Z"/>
          <path d="m1983.1,1805.19c.52,0,.95-.4.98-.93l6.47-112.42c.03-.54-.38-1-.92-1.04-.54-.06-1.01.38-1.04.92l-6.47,112.42c-.03.54.38,1.01.92,1.04.02,0,.04,0,.06,0Z"/>
          <g>
            <g>
              <rect class="cls-23" x="2031.34" y="994.37" width="87.7" height="750.34" transform="translate(-313.1 2060.99) rotate(-49.57)"/>
              <rect class="cls-19" x="2058.33" y="994.37" width="33.73" height="750.34" transform="translate(-313.1 2060.99) rotate(-49.57)"/>
              <rect class="cls-34" x="2265.57" y="1558.05" width="87.7" height="22.09" transform="translate(-382.68 2309.42) rotate(-49.57)"/>
              <path class="cls-7" d="m2391.34,1638.89h0c-15.7,18.43-43.38,20.65-61.81,4.94l-40.14-34.2,56.87-66.75,40.14,34.2c18.43,15.7,20.65,43.38,4.94,61.81Z"/>
              <path class="cls-35" d="m1705.13,1054.26l56.04,105.35h0c5.57,4.75,14,4,18.84-1.68,4.83-5.67,4.23-14.12-1.34-18.86,5.57,4.75,14.98,2.85,21.02-4.24,6.04-7.09,6.42-16.68.85-21.43,5.57,4.75,14,4,18.84-1.68,4.83-5.67,4.23-14.12-1.34-18.86h0l-112.92-38.6Z"/>
              <path class="cls-23" d="m1761.18,1159.61s18.58-4.11,17.5-20.54l11.9,10.14-17.5,20.54-11.9-10.14Z"/>
              <path class="cls-23" d="m1800.55,1113.4s18.58-4.11,17.5-20.54l11.9,10.14-17.5,20.54-11.91-10.14Z"/>
              <path class="cls-19" d="m1778.68,1139.07s20.68-1.58,21.87-25.67l12.97,11.05-21.87,25.67-12.97-11.05Z"/>
              <path class="cls-2" d="m1723.75,1089.25s16.59-3.38,18.89-22.17l-37.5-12.82,18.61,34.99Z"/>
            </g>
            <path d="m2392.48,1639.85c14.99-17.75,12.78-34.22,8.29-44.91-4.82-11.49-13.05-18.69-13.39-18.99l-568.57-484.41-.27-.09-116.49-39.82,36.09,67.85,2.64-1.4-32.54-61.18,109.07,37.28,568.13,484.03c.07.06,8.09,7.1,12.63,17.98,6.01,14.4,3.36,28.44-7.86,41.74l2.28,1.93Z"/>
            <rect x="2037.02" y="1179.82" width="2.99" height="431.8" transform="translate(-346.32 2040.79) rotate(-49.53)"/>
            <rect x="2255.53" y="1519.1" width="2.99" height="33.24" transform="translate(335.93 3475.31) rotate(-79.51)"/>
            <rect x="2345.33" y="1610.22" width="2.99" height="18.88" transform="translate(326.75 3632.18) rotate(-79.5)"/>
            <rect x="2356.22" y="1622.59" width="2.99" height="18.88" transform="translate(323.51 3653.02) rotate(-79.5)"/>
            <rect x="2264.34" y="1534.29" width="2.99" height="33.24" transform="translate(328.12 3496.31) rotate(-79.5)"/>
            <rect x="2274.04" y="1574.81" width="87.7" height="2.99" transform="translate(-383.85 2323.27) rotate(-49.67)"/>
          </g>
          <g>
            <path class="cls-13" d="m2064.79,1427.61c-11.5,1.53-6.49-6.2-6.49-6.2-6.26.19-7.23-1.97-6.95-3.79.2-1.34,1.09-2.47,2.28-3.1,3.8-2,15.43-8.06,22.92-11.42,3.2-4.25-4.65-8.84-9.66-10.06-2.58-.63-5.58-3.12,1.16-4.89,5.51-1.44,18.11.17,18.11.17l17.26-24.15,27.82,30.05s-22.5,25.13-25.87,28.94c-3.36,3.81-18.91,12.84-25.66,13.78-12.25,1.7-8.71-2.99-8.71-2.99-12.89.58-6.22-6.34-6.22-6.34Z"/>
            <path class="cls-12" d="m2070.38,1417.79c.18-.18.24-.47.12-.71-.15-.3-.52-.42-.82-.27-4.23,2.11-11.45,4-11.52,4.02-.33.09-.52.42-.44.75.09.33.42.52.75.44.3-.08,7.42-1.94,11.76-4.11.06-.03.11-.07.15-.11Z"/>
            <path class="cls-12" d="m2075.8,1423.31c.21-.2.25-.53.08-.78-.19-.28-.57-.35-.85-.17-4.78,3.21-10.33,4.64-10.39,4.65-.33.08-.53.42-.44.74.08.33.41.53.74.44.24-.06,5.81-1.49,10.77-4.83.03-.02.06-.05.09-.07Z"/>
            <path class="cls-12" d="m2081.01,1430.56c.2-.2.24-.51.09-.76-.18-.28-.56-.37-.84-.19-4.2,2.65-9.32,3.74-9.37,3.75-.33.07-.54.39-.47.72.07.33.39.54.72.47.22-.05,5.38-1.14,9.77-3.91.04-.02.07-.05.1-.08Z"/>
          </g>
          <path class="cls-31" d="m2127.33,1399.84l-7.56,8.44s-28.17-24.3-30.21-27.5c.48-.49,8.47-12.18,8.47-12.18l29.3,31.24Z"/>
          <path class="cls-2" d="m2079.09,1087.49s47.98-4.38,71.92,35.3c21.87,36.25,63.62,87.17,68.86,137.32,4.23,40.53-71.83,121.33-91.7,140.64l-35.17-37.5s55.98-88.8,60.34-99.75c3.96-9.96-77.94-118.01-77.94-118.01l3.69-58Z"/>
          <path d="m2128.18,1401.73c.23,0,.46-.08.65-.24.41-.36.45-.98.09-1.39-8.02-9.2-30.85-33-34.66-36.97,19.56-30.05,60.07-99.04,60.08-100.98,0-.54-.44-.98-.98-.99h0c-.48,0-.87.34-.96.79-1.14,3.04-39.12,68.47-60.2,100.75l-.43.65.54.56c.26.27,26.44,27.5,35.14,37.47.19.22.47.34.74.34Z"/>
          <path d="m2172.48,1270.61c.54,0,.98-.44.98-.98s-.44-.98-.98-.98c-5.98,0-16.23-5.92-18.26-7.13-3.26-13.3-49.35-78.24-51.33-81.03-.31-.44-.93-.55-1.37-.23-.44.31-.55.93-.23,1.37.49.69,48.9,68.9,51.09,80.69l.08.43.37.23c.51.31,12.47,7.63,19.65,7.63Z"/>
          <path d="m2196.08,1194.89c.18,0,.37-.05.53-.16.46-.29.59-.9.29-1.36l-52.8-81.67c-27-28.87-60.06-25.04-60.39-25-.54.07-.92.56-.85,1.1.07.54.57.91,1.1.85.32-.04,32.37-3.71,58.64,24.33l52.65,81.46c.19.29.5.45.83.45Z"/>
          <g>
            <path class="cls-23" d="m2102.76,1844.47h-40.29l-16.33-18.25-29.88,18.25h-6.43c-2.22,0-4.25,1.54-4.67,3.77-.56,3.01,1.67,5.63,4.5,5.63h93.67c.69,0,1.25-.57,1.25-1.28v-6.26c0-1.03-.82-1.87-1.82-1.87Z"/>
            <path class="cls-32" d="m2102.4,1844.52v-16.96s-6.78-9.37-17.12-4.59c0,0-15.62,11.37-29.4-2.39l-34.2,15.56s-9.38,3.22-11.92,8.38h92.64Z"/>
            <rect x="2102.06" y="1827.56" width=".69" height="16.88"/>
            <path d="m2071.28,1827.74c-1.31,0-2.1-.11-2.12-.12l.1-.7c.08.01,8.15,1.17,15.83-4.25l.39.58c-5.5,3.88-11.21,4.48-14.2,4.48Z"/>
            <polygon points="2094.08 1841.35 2093.69 1840.77 2098.06 1837.75 2098.45 1838.33 2094.08 1841.35"/>
            <polygon points="2090.94 1840.5 2090.56 1839.91 2094.93 1836.89 2095.31 1837.47 2090.94 1840.5"/>
            <path d="m2006.47,1853.06c-1.11-.96-1.74-2.37-1.74-3.85,0-2.79,2.21-5.06,4.93-5.06h92.62c1.46,0,2.64,1.22,2.64,2.71v4.69h-.69v-4.69c0-1.11-.88-2.01-1.96-2.01h-92.62c-2.34,0-4.24,1.95-4.24,4.35,0,1.28.55,2.49,1.5,3.32l-.44.54Z"/>
            <path d="m2009.97,1844.65l-.62-.3c.08-.17,1.95-4.11,8.95-7.17,6.88-3.01,37.14-16.78,37.45-16.92l.28.64c-.31.14-30.57,13.91-37.46,16.92-6.74,2.95-8.59,6.79-8.6,6.83Z"/>
          </g>
          <g>
            <path class="cls-23" d="m1996.68,1844.47h-40.29l-16.33-18.25-29.88,18.25h-6.43c-2.22,0-4.25,1.54-4.67,3.77-.56,3.01,1.67,5.63,4.5,5.63h93.67c.69,0,1.25-.57,1.25-1.28v-6.26c0-1.03-.82-1.87-1.82-1.87Z"/>
            <path class="cls-32" d="m1996.32,1844.52v-16.96s-6.78-9.37-17.12-4.59c0,0-15.62,11.37-29.4-2.39l-34.2,15.56s-9.38,3.22-11.92,8.38h92.64Z"/>
            <rect x="1995.98" y="1827.56" width=".69" height="16.88"/>
            <path d="m1965.2,1827.74c-1.31,0-2.1-.11-2.12-.12l.1-.7c.08.01,8.15,1.17,15.83-4.25l.39.58c-5.5,3.88-11.21,4.48-14.2,4.48Z"/>
            <polygon points="1988 1841.35 1987.61 1840.77 1991.98 1837.75 1992.36 1838.33 1988 1841.35"/>
            <polygon points="1984.86 1840.5 1984.48 1839.91 1988.85 1836.89 1989.23 1837.47 1984.86 1840.5"/>
            <path d="m1900.39,1853.06c-1.11-.96-1.74-2.37-1.74-3.85,0-2.79,2.21-5.06,4.93-5.06h92.62c1.46,0,2.64,1.22,2.64,2.71v4.69h-.69v-4.69c0-1.11-.88-2.01-1.96-2.01h-92.62c-2.34,0-4.24,1.95-4.24,4.35,0,1.28.55,2.49,1.5,3.32l-.44.54Z"/>
            <path d="m1903.89,1844.65l-.62-.3c.08-.17,1.95-4.11,8.95-7.17,6.88-3.01,37.14-16.78,37.45-16.92l.28.64c-.31.14-30.57,13.91-37.46,16.92-6.74,2.95-8.59,6.79-8.6,6.83Z"/>
          </g>
        </g>
      </g>
    </g>
  </g>
</svg>