<?xml version="1.0" encoding="UTF-8"?>
<svg id="Layer_1" data-name="Layer 1" xmlns="http://www.w3.org/2000/svg" viewBox="0 0 32 32">
  <defs>
    <style>
      .cls-1 {
        fill: #fff;
      }

      .cls-2 {
        fill: #3fa9f5;
      }

      .cls-3 {
        fill: #3ca4e5;
      }

      .cls-4 {
        fill: none;
      }
    </style>
  </defs>
  <rect class="cls-4" x="-19.6" y="10.96" width="49.69" height="45.04"/>
  <path class="cls-1" d="m21,3.74l5.45.03c.68,0,1.08.77.69,1.33L10.73,28.53c-.16.23-.42.36-.69.36h-5.48c-.68,0-1.08-.77-.69-1.33L20.3,4.1c.16-.23.42-.36.7-.36Z"/>
  <path class="cls-2" d="m26.48,25.38h-9.97c-.72,0-1.14-.8-.74-1.4l4.98-7.3c.35-.52,1.12-.52,1.48,0l4.98,7.3c.41.59-.02,1.4-.74,1.4Z"/>
  <path class="cls-3" d="m4.62,7.12h9.97c.72,0,1.14.8.74,1.4l-4.98,7.3c-.35.52-1.12.52-1.48,0l-4.98-7.3c-.41-.59.02-1.4.74-1.4Z"/>
</svg>